<?xml version="1.0" standalone="no"?>
<!DOCTYPE svg PUBLIC "-//W3C//DTD SVG 20010904//EN"
 "http://www.w3.org/TR/2001/REC-SVG-20010904/DTD/svg10.dtd">
<svg version="1.0" xmlns="http://www.w3.org/2000/svg"
 width="368.000000pt" height="368.000000pt" viewBox="0 0 368.000000 368.000000"
 preserveAspectRatio="xMidYMid meet">

<g transform="translate(0.000000,368.000000) scale(0.100000,-0.100000)"
fill="#000000" stroke="none">
<path d="M1750 2923 c0 -82 -3 -172 -6 -200 l-7 -53 -417 0 -417 0 -6 -82 c-9
-114 -9 -176 2 -182 4 -3 183 -6 397 -6 214 -1 401 -4 417 -7 l27 -5 0 -146 0
-145 -365 6 -365 5 0 -134 0 -134 198 0 c110 0 274 -3 365 -7 l167 -6 0 -185
0 -185 -37 7 c-390 65 -693 -12 -795 -200 -100 -185 -22 -424 167 -514 114
-54 173 -64 365 -64 236 0 332 26 442 123 52 46 112 153 123 220 4 24 12 41
20 41 54 0 368 -144 547 -251 65 -39 120 -70 122 -68 18 23 156 252 156 259 0
12 -157 108 -266 163 -117 58 -293 128 -435 170 l-114 35 -3 231 -2 231 87 0
c100 0 407 16 501 26 l62 6 0 135 0 135 -72 -6 c-141 -12 -394 -26 -480 -26
l-88 0 0 143 0 143 313 13 c171 7 338 15 370 18 l57 5 0 136 0 135 -92 -7
c-140 -11 -630 -26 -640 -20 -4 3 -8 93 -8 200 l0 194 -145 0 -145 0 0 -147z
m-164 -1703 c144 -36 143 -36 122 -117 -17 -68 -77 -126 -152 -148 -89 -26
-242 -17 -319 18 -85 39 -122 117 -82 174 57 82 261 116 431 73z"/>
</g>
</svg>
